# xmcd
#
# Track frame offsets: 
#        150
#        18299
#        39031
#        57468
#        75200
#        96247
#        120836
#        147431
#        167007
#        185895
#        211719
#        229059
#        239961
#        260205
#        270868
#
# Disc length: 3971 seconds
#
# Revision: 0
# Processed by: cddbd v1.5.2PL0 Copyright (c) Steve Scherf et al.
# Submitted via: ExactAudioCopy v1.3
#
DISCID=c60f810f
DTITLE=Dixie Chicks - The Essential Dixie Chicks [CD1)
DYEAR=2010
DGENRE=Country
TTITLE0=Not Ready To Make Nice
TTITLE1=The Long Way Round
TTITLE2=Easy Silence
TTITLE3=Lubbock Or Leave It
TTITLE4=Bitter End
TTITLE5=Silent House
TTITLE6=Lullaby
TTITLE7=Everybody Knows
TTITLE8=Long Time Gone
TTITLE9=Travelin' Soldier
TTITLE10=Landslide
TTITLE11=Lil' Jack Slade
TTITLE12=Truth No. 2
TTITLE13=White Trash Wedding
TTITLE14=Top Of The World
EXTD=
EXTT0=
EXTT1=
EXTT2=
EXTT3=
EXTT4=
EXTT5=
EXTT6=
EXTT7=
EXTT8=
EXTT9=
EXTT10=
EXTT11=
EXTT12=
EXTT13=
EXTT14=
PLAYORDER=
